{
	"patcher" : 	{
		"fileversion" : 1,
		"appversion" : 		{
			"major" : 8,
			"minor" : 6,
			"revision" : 5,
			"architecture" : "x64",
			"modernui" : 1
		}
,
		"classnamespace" : "dsp.gen",
		"rect" : [ 34.0, 100.0, 1660.0, 983.0 ],
		"bglocked" : 0,
		"openinpresentation" : 0,
		"default_fontsize" : 12.0,
		"default_fontface" : 0,
		"default_fontname" : "Arial",
		"gridonopen" : 1,
		"gridsize" : [ 15.0, 15.0 ],
		"gridsnaponopen" : 1,
		"objectsnaponopen" : 1,
		"statusbarvisible" : 2,
		"toolbarvisible" : 1,
		"lefttoolbarpinned" : 0,
		"toptoolbarpinned" : 0,
		"righttoolbarpinned" : 0,
		"bottomtoolbarpinned" : 0,
		"toolbars_unpinned_last_save" : 0,
		"tallnewobj" : 0,
		"boxanimatetime" : 200,
		"enablehscroll" : 1,
		"enablevscroll" : 1,
		"devicewidth" : 0.0,
		"description" : "",
		"digest" : "",
		"tags" : "",
		"style" : "",
		"subpatcher_template" : "",
		"assistshowspatchername" : 0,
		"boxes" : [ 			{
				"box" : 				{
					"id" : "obj-6",
					"maxclass" : "newobj",
					"numinlets" : 0,
					"numoutlets" : 1,
					"outlettype" : [ "" ],
					"patching_rect" : [ 773.864066243171692, 12.092198729515076, 123.0, 22.0 ],
					"text" : "in 6 @comment fprce"
				}

			}
, 			{
				"box" : 				{
					"id" : "obj-5",
					"maxclass" : "newobj",
					"numinlets" : 0,
					"numoutlets" : 1,
					"outlettype" : [ "" ],
					"patching_rect" : [ 615.728132486343384, 12.092198729515076, 141.0, 22.0 ],
					"text" : "in 5 @comment softness"
				}

			}
, 			{
				"box" : 				{
					"id" : "obj-3",
					"maxclass" : "newobj",
					"numinlets" : 0,
					"numoutlets" : 1,
					"outlettype" : [ "" ],
					"patching_rect" : [ 470.592198729515076, 12.092198729515076, 128.0, 22.0 ],
					"text" : "in 4 @comment decay"
				}

			}
, 			{
				"box" : 				{
					"code" : "// in1 = gate (0 or velocity 0-1)\n// in2 = base_freq (Hz)\n// in3 = ratio (frequency multiplier for this mode)\n// in4 = sample_rate (Hz)\r\n// in5 = tau, decay in seconds (0.1 to 5.0)\n// in6 = softness, 0=hard, 1=soft (affects exc duration)\n// in7 = force, output gain (0.0 to 1.0) \n\nHistory gate_prev(0.);\nHistory exc_phase(1.);\nHistory velocity(0.);\nHistory y_prev_1(0.);\nHistory y_prev_2(0.);\n\n// Param decay(1.0);      // tau in seconds (0.1 to 5.0)\n// Param softness(0.5);   // 0=hard, 1=soft (affects exc duration)\n// Param force(0.5);      // output gain (0.0 to 1.0)\n\n// Input assignments\ngate = in1;\nbase_freq = in2;\nratio = in3;\r\ndecay= in4;\r\nsoftness = in5;\r\nforce = in6;\r\nsr_hz = in7;\n\n// ===== EXCITER =====\ncurr_phase = exc_phase;\ntrigger = (gate > 0.) && (gate_prev <= 0.);\ncurr_velocity = trigger ? clamp(gate, 0.01, 1.) : velocity;\n\n// Map softness to duration: soft=10ms, hard=1ms\nexc_dur_sec = 0.001 + softness * 0.009;\n\ninv_sr = 1. / sr_hz;\nphase_inc = inv_sr / (exc_dur_sec + 1e-6);\n\nshould_increment = curr_phase < 1.;\nincremented = curr_phase + phase_inc;\nnew_phase = trigger ? 0. : (should_increment ? incremented : 1.);\n\nactive = new_phase < 1.;\npi = 3.14159265359;\nwindow = 0.5 * (1. - cos(2. * pi * new_phase));\nexc_sig = active ? window * curr_velocity : 0.;\n\ngate_prev = gate;\nexc_phase = new_phase;\nvelocity = curr_velocity;\n\n// ===== RESONATOR =====\nfrequency = base_freq * ratio;\nomega = 6.28318530718 * frequency * inv_sr;\ndecay_factor = exp(-inv_sr / decay);\nradius = decay_factor;\n\nexc_gain = 60.;\nb0 = (1. - radius * radius) * exc_gain;\na1 = 2. * radius * cos(omega);\na2 = -(radius * radius);\n\ny_new = exc_sig * b0 + a1 * y_prev_1 + a2 * y_prev_2;\n\ny_prev_2 = y_prev_1;\ny_prev_1 = y_new;\n\nout1 = tanh(force * y_new * 0.5);",
					"fontface" : 0,
					"fontname" : "<Monospaced>",
					"fontsize" : 12.0,
					"id" : "obj-9",
					"maxclass" : "codebox",
					"numinlets" : 7,
					"numoutlets" : 1,
					"outlettype" : [ "" ],
					"patching_rect" : [ 14.184397459030151, 57.446809709072113, 918.815602540969849, 723.0 ]
				}

			}
, 			{
				"box" : 				{
					"id" : "obj-8",
					"maxclass" : "newobj",
					"numinlets" : 0,
					"numoutlets" : 1,
					"outlettype" : [ "" ],
					"patching_rect" : [ 914.0, 12.092198729515076, 68.0, 22.0 ],
					"text" : "samplerate"
				}

			}
, 			{
				"box" : 				{
					"id" : "obj-7",
					"maxclass" : "newobj",
					"numinlets" : 0,
					"numoutlets" : 1,
					"outlettype" : [ "" ],
					"patching_rect" : [ 334.456264972686768, 12.092198729515076, 119.0, 22.0 ],
					"text" : "in 3 @comment ratio"
				}

			}
, 			{
				"box" : 				{
					"id" : "obj-1",
					"maxclass" : "newobj",
					"numinlets" : 0,
					"numoutlets" : 1,
					"outlettype" : [ "" ],
					"patching_rect" : [ 14.184397459030151, 12.092198729515076, 137.0, 22.0 ],
					"text" : "in 1 @comment impulse"
				}

			}
, 			{
				"box" : 				{
					"id" : "obj-2",
					"maxclass" : "newobj",
					"numinlets" : 0,
					"numoutlets" : 1,
					"outlettype" : [ "" ],
					"patching_rect" : [ 168.320331215858459, 12.092198729515076, 149.0, 22.0 ],
					"text" : "in 2 @comment frequency"
				}

			}
, 			{
				"box" : 				{
					"id" : "obj-4",
					"maxclass" : "newobj",
					"numinlets" : 1,
					"numoutlets" : 0,
					"patching_rect" : [ 14.184397459030151, 792.0, 35.0, 22.0 ],
					"text" : "out 1"
				}

			}
 ],
		"lines" : [ 			{
				"patchline" : 				{
					"destination" : [ "obj-9", 0 ],
					"source" : [ "obj-1", 0 ]
				}

			}
, 			{
				"patchline" : 				{
					"destination" : [ "obj-9", 1 ],
					"source" : [ "obj-2", 0 ]
				}

			}
, 			{
				"patchline" : 				{
					"destination" : [ "obj-9", 3 ],
					"source" : [ "obj-3", 0 ]
				}

			}
, 			{
				"patchline" : 				{
					"destination" : [ "obj-9", 4 ],
					"source" : [ "obj-5", 0 ]
				}

			}
, 			{
				"patchline" : 				{
					"destination" : [ "obj-9", 5 ],
					"source" : [ "obj-6", 0 ]
				}

			}
, 			{
				"patchline" : 				{
					"destination" : [ "obj-9", 2 ],
					"source" : [ "obj-7", 0 ]
				}

			}
, 			{
				"patchline" : 				{
					"destination" : [ "obj-9", 6 ],
					"source" : [ "obj-8", 0 ]
				}

			}
, 			{
				"patchline" : 				{
					"destination" : [ "obj-4", 0 ],
					"source" : [ "obj-9", 0 ]
				}

			}
 ]
	}

}
